# xmcd
#
# Track frame offsets:
#	150
#	12898
#	26576
#	39740
#	50448
#	65586
#	77927
#	89258
#	100948
#	111137
#	120840
#	135574
#	152370
#	165357
#	174867
#	186710
#	197925
#	209019
#
# Disc length: 3016 seconds
#
# Revision: 0
# Processed by: cddbd v1.4PL0 Copyright (c) Steve Scherf et al.
# Submitted via: audiograbber 1.81.00
#
DISCID=ee0bc612
DTITLE=Various Artist - Million Dollar Country
DYEAR=1900
DGENRE=
TTITLE0=Don Williams - You're my best Friend
TTITLE1=Patsy Cline - She's got you
TTITLE2=Faron Young - It's four in the morning
TTITLE3=Leroy Van Dyke - Walk on by
TTITLE4=B.J. Thomas - Another Somebody
TTITLE5=Jerry Lee Lewis - There must be more to love than this
TTITLE6=Donna Fargo - The happiest Girl in the whole USA
TTITLE7=Jack Greene - there goes my everything
TTITLE8=Statler Brothers - Do you know you are my Sunshine
TTITLE9=Johnny Rodriguez - Ridin' my thumb to Mexico
TTITLE10=Jeanne Pruett - Satin Sheets
TTITLE11=Oak Ridge Boys - Elvira
TTITLE12=Cal Smith - Lord knows i'm drinking
TTITLE13=Tom T. Hall - I Love
TTITLE14=Loretta Lynn - One's on the way
TTITLE15=Billy 'Crash' Craddock - Rub it in
TTITLE16=Roger Miller - King of the Road
TTITLE17=C.W. McCall - Convoy
EXTD=
EXTT0=
EXTT1=
EXTT2=
EXTT3=
EXTT4=
EXTT5=
EXTT6=
EXTT7=
EXTT8=
EXTT9=
EXTT10=
EXTT11=
EXTT12=
EXTT13=
EXTT14=
EXTT15=
EXTT16=
EXTT17=
PLAYORDER=
